<svg xmlns="http://www.w3.org/2000/svg" width="256" height="256"><path fill-opacity=".016" d="M0 128.004v128.004l128.25-.254 128.25-.254.254-127.75L257.008 0H0v128.004m.485.496c0 70.4.119 99.053.265 63.672.146-35.38.146-92.98 0-128C.604 29.153.485 58.1.485 128.5" fill="#1976D2" fill-rule="evenodd"/><path fill-opacity=".39" d="M101.5 40.342l-26 15.161-.5 28.449-.5 28.449-24.25 13.906L26 140.213v60.414l26.439 15.244c26.32 15.176 26.451 15.237 29.38 13.723 1.618-.837 12.651-7.152 24.517-14.033l21.575-12.512 24.496 14.079 24.496 14.08 25.798-14.997 25.799-14.997v-61.531l-24.25-13.989-24.25-13.99V55.191l-25.704-14.846c-14.137-8.165-25.949-14.917-26.25-15.004-.3-.088-12.246 6.663-26.546 15.001m3.258 6.489L83.016 59.5l-.008 23.75c-.004 13.063.177 23.75.403 23.75.227 0 10.158-5.625 22.069-12.5 11.912-6.875 22.034-12.5 22.493-12.5.46 0 10.552 5.625 22.428 12.5 11.876 6.875 21.819 12.5 22.096 12.5.277 0 .503-10.699.503-23.776V59.448l-22.08-12.724c-12.144-6.998-22.607-12.688-23.25-12.643-.644.044-10.954 5.782-22.912 12.75m2.526 54.975C96.166 108.238 87.071 113.725 87.073 114c.003.275 9.213 5.76 20.466 12.189L128 137.877l20.461-11.688c11.253-6.429 20.471-11.914 20.484-12.189.022-.468-39.18-23.272-40.731-23.694-.393-.107-9.811 5.068-20.93 11.5M54.25 132.774L34 144.454l.015 26.023.016 26.023 22.261 12.75C68.535 216.262 78.847 222 79.206 222c.36 0 9.739-5.243 20.844-11.652l20.19-11.652-3.87-2.343c-2.128-1.288-12.298-7.182-22.599-13.098L75.042 172.5l-.271-25.703-.271-25.703-20.25 11.68M83 144.394c0 23.337.021 23.574 2.25 25.006 1.237.796 10.463 6.187 20.5 11.981L124 191.916V144.173l-19.671-11.337c-10.82-6.235-20.045-11.486-20.5-11.669-.456-.184-.829 10.268-.829 23.227m68.75-11.731L132 144.204v47.689l20.475-11.697L172.95 168.5l.025-23.75c.014-13.062-.313-23.723-.725-23.689-.412.033-9.637 5.254-20.5 11.602m28.37 13.911l.38 25.888-21.557 12.519c-11.856 6.885-21.641 12.969-21.743 13.519-.236 1.268 38.507 23.726 40.213 23.309.697-.17 11.014-5.922 22.927-12.782L222 196.555v-52.331l-19.25-11.051c-10.588-6.078-20.096-11.374-21.13-11.769-1.815-.693-1.866.167-1.5 25.17" fill="#1976D2" fill-rule="evenodd"/><path fill-opacity=".092" d="M84.742 50.832c-1.517 1-2.417 2.194-2 2.654.417.459.229.532-.417.162-.646-.371-2.327-.149-3.735.493l-2.56 1.166-.265 28.476-.265 28.475L51.5 126l-24 13.743v61.404l25.811 14.917 25.81 14.917 23.19-13.435c12.754-7.389 23.864-13.689 24.689-14.001.871-.329 11.617 5.257 25.638 13.328l24.137 13.895 26.07-15.134 26.07-15.134-.149-10.5-.149-10.5-.558 9.5c-.345 5.853-.821 8.597-1.242 7.149-.375-1.292-1.143-2.066-1.705-1.718-.651.402-1.149-2.018-1.369-6.649l-.346-7.282-.198 8.144-.199 8.145-23.076 13.082-23.075 13.082-20.988-12.151c-13.82-8.002-20.539-12.416-19.674-12.926.722-.426 10.763-6.325 22.313-13.11l21-12.337.062-21.964c.046-16.128-.101-19.042-.552-10.965-.338 6.05-.704 10.014-.812 8.809-.224-2.474-2.092-4.126-2.396-2.118-.108.72-.469-3.641-.802-9.691-.506-9.204-.637-7.49-.802 10.501L174 168.503l-20.812 11.748c-11.446 6.462-21.121 11.749-21.5 11.749-.378 0-.688-10.758-.688-23.908v-23.907l14.031-8.203c11.449-6.694 13.818-8.459 12.877-9.592-.634-.765-1.885-1.408-2.78-1.43-1.036-.026-.627-.583 1.122-1.532 1.512-.821 2.75-1.736 2.75-2.033 0-.541-3.246 1.215-20.829 11.27-5.131 2.934-9.711 5.335-10.177 5.335-.759 0-34.029-18.924-39.823-22.652-2.268-1.458-1.807-1.803 17.5-13.056 17.142-9.992 26.768-16.077 19.602-12.392-1.693.871-2.694.854-4.176-.071-1.808-1.13-1.828-1.315-.273-2.578 2.791-2.267-1.731.131-20.541 10.896-9.47 5.419-17.457 9.853-17.75 9.853C82.24 108 82 97.058 82 83.684V59.368l4-2.248c4.781-2.687 5.385-3.887.75-1.491-2.793 1.444-3.067 1.46-1.951.115.987-1.191 1.014-1.742.114-2.298-.821-.507-.451-1.296 1.201-2.567 3.08-2.368 2.195-2.399-1.372-.047m39.699 33.723c-1.864 1.494-1.852 1.512.309.465 1.237-.6 2.25-1.3 2.25-1.555 0-.765-.519-.544-2.559 1.09M129 89.43c0 .275.9.981 2 1.57 1.1.589 2 .845 2 .57s-.9-.981-2-1.57c-1.1-.589-2-.845-2-.57m-74.25 42.688L34 144.154v52.552l22.537 13.008 22.536 13.009 20.99-12.017 20.99-12.018-8.776-5.121a5044.7 5044.7 0 00-22.511-13.016l-13.734-7.895-.266-26.287-.266-26.287-20.75 12.036m27.78-11.166c-.275.444-.211 11.376.141 24.292l.641 23.484 19.13 11.085c10.521 6.097 19.901 11.381 20.844 11.743 1.59.61 1.714-1.087 1.714-23.372v-24.03l-20.986-12.005c-11.542-6.603-21.21-11.641-21.484-11.197m80.22 3.62c-3.738 2.028-3.511 2.873.25.928 1.65-.853 3-1.765 3-2.026 0-.643-.107-.607-3.25 1.098" fill="#1976D2" fill-rule="evenodd"/><path fill-opacity=".662" d="M48.25 128.13L27 140.212v60.404l25.454 14.692c14 8.081 26.002 14.692 26.671 14.692.67 0 11.695-6.075 24.502-13.5 12.807-7.425 23.765-13.5 24.351-13.5.586 0 11.714 6.095 24.729 13.545 22.292 12.76 23.826 13.477 26.499 12.37 1.56-.647 3.102-1.604 3.426-2.128.323-.524-.789-.24-2.472.63-3.754 1.942-4.245 1.967-3.56.184.295-.769-.027-1.747-.715-2.172-.915-.566-.746-.952.628-1.433 1.738-.61 1.714-.703-.318-1.235-1.209-.316-1.946-.166-1.637.332.978 1.583-.968.937-3.558-1.182l-2.5-2.045 2.5 1.122c2.386 1.071 2.41 1.05.529-.455-1.085-.867-2.57-1.347-3.302-1.067-.732.281-1.081.106-.775-.389.306-.495-6.655-5.048-15.468-10.117-8.814-5.07-16.252-9.584-16.529-10.032-.277-.449 1.532-2.008 4.021-3.467 4.533-2.656 5.871-3.915 2.983-2.807-.967.371-1.432.095-1.25-.741.403-1.847-4.071-2.01-7.459-.272l-2.75 1.41-.163-10.775c-.127-8.374-.294-9.55-.75-5.276-.534 5.005-.661 5.235-1.406 2.552-.637-2.294-1.021-2.627-1.734-1.5-.619.978-.988-.66-1.137-5.052-.124-3.643-.46-.687-.766 6.724l-.544 13.223-21-12.223-21-12.224-.529-22.5c-.291-12.375-.649-20.25-.795-17.5l-.266 5-1.374-3c-1.143-2.495-1.415-2.664-1.618-1-.134 1.1-.547-.475-.918-3.5-.375-3.061-.736 6.028-.814 20.5l-.14 26 22.551 12.876c12.403 7.082 22.18 13.238 21.727 13.68-.453.441-9.916 6.004-21.027 12.361l-20.204 11.559-22.296-12.871L34.5 197.233v-53.541l19.667-11.596c10.817-6.378 20.042-11.994 20.5-12.481.458-.487-.169-.365-1.394.272-1.704.887-2.685.873-4.176-.058-1.804-1.127-1.824-1.312-.273-2.491 3.775-2.87-.339-.712-20.574 10.792m91.191 60.425c-1.864 1.494-1.852 1.512.309.465 1.238-.6 2.25-1.3 2.25-1.555 0-.765-.519-.544-2.559 1.09" fill="#1976D2" fill-rule="evenodd"/></svg>